<svg height="512pt" viewBox="0 0 512 512" width="512pt" xmlns="http://www.w3.org/2000/svg"><path d="m409.601562 93.867188h85.332032c4.710937 0 8.53125 3.820312 8.53125 8.53125v85.335937c0 4.710937-3.820313 8.53125-8.53125 8.53125h-85.332032c-4.714843 0-8.535156-3.820313-8.535156-8.53125v-85.335937c0-4.710938 3.820313-8.53125 8.535156-8.53125zm0 0" fill="#ff9801"/><path d="m409.601562 93.867188h59.730469c4.714844 0 8.535157 3.820312 8.535157 8.53125v85.335937c0 4.710937-3.820313 8.53125-8.535157 8.53125h-59.730469c-4.714843 0-8.535156-3.820313-8.535156-8.53125v-85.335937c0-4.710938 3.820313-8.53125 8.535156-8.53125zm0 0" fill="#fec108"/><path d="m301.398438 203.433594c-2.0625 1.914062-3.027344 4.734375-2.5625 7.511718l8.363281 45.054688h-102.398438l8.445313-45.652344c.269531-1.910156-.089844-3.859375-1.023438-5.546875h-.085937c-.351563-.765625-.84375-1.460937-1.449219-2.046875-8.910156-8.558594-15.3125-19.386718-18.515625-31.320312l-2.304687-9.300782-2.132813-8.53125c25.597656 17.066407 110.933594 17.066407 136.53125 0l-4.4375 17.832032c-3.164063 12.125-9.53125 23.179687-18.429687 32zm0 0" fill="#ffe0b2"/><path d="m341.332031 85.332031-9.386719 37.546875-7.679687 30.722656c-25.597656 17.066407-110.933594 17.066407-136.53125 0l-7.597656-30.464843-9.46875-37.804688zm0 0" fill="#ff5722"/><path d="m358.398438 341.332031v145.152344c.003906 4.503906-1.785157 8.824219-4.96875 12.011719-3.1875 3.183594-7.507813 4.972656-12.011719 4.96875h-170.835938c-4.503906.003906-8.824219-1.785156-12.011719-4.96875-3.183593-3.1875-4.972656-7.507813-4.96875-12.011719v-145.152344zm0 0" fill="#283593"/><path d="m332.800781 341.332031v145.152344c0 4.503906-1.785156 8.824219-4.972656 12.011719-3.183594 3.183594-7.503906 4.972656-12.007813 4.96875h-145.238281c-4.503906.003906-8.824219-1.785156-12.011719-4.96875-3.183593-3.1875-4.972656-7.507813-4.96875-12.011719v-145.152344zm0 0" fill="#3f51b5"/><path d="m358.828125 268.542969-.429687.855469v71.933593h-34.132813v-84.480469c12.167969 1.625 23.90625 5.59375 34.5625 11.691407zm0 0" fill="#283593"/><path d="m324.265625 256.851562v84.480469h-136.53125v-83.710937l-.085937-.769532c4.269531-.582031 8.574218-.867187 12.886718-.851562h110.929688c4.285156-.019531 8.5625.265625 12.800781.851562zm0 0" fill="#3f51b5"/><path d="m187.734375 257.621094v83.710937h-34.132813v-73.042969c10.519532-5.941406 22.074219-9.820312 34.046876-11.4375zm0 0" fill="#283593"/><path d="m341.332031 34.132812v51.199219h-170.664062v-51.199219c0-14.136718 11.460937-25.597656 25.597656-25.597656h119.46875c14.136719 0 25.597656 11.460938 25.597656 25.597656zm0 0" fill="#ff9801"/><path d="m315.734375 34.132812v51.199219h-145.066406v-51.199219c-.984375-13.054687 8.71875-24.46875 21.757812-25.597656h101.546875c13.042969 1.128906 22.746094 12.542969 21.761719 25.597656zm0 0" fill="#fec108"/><path d="m180.136719 123.136719c-7.246094 5.96875-17.546875 6.496093-25.367188 1.296875-7.816406-5.195313-11.320312-14.894532-8.625-23.890625 2.691407-8.992188 10.953125-15.167969 20.339844-15.210938h4.183594zm0 0" fill="#ffe0b2"/><path d="m367.703125 106.667969c0 11.78125-9.554687 21.332031-21.335937 21.332031-4.953126.019531-9.753907-1.703125-13.566407-4.863281l-.855469-.257813 9.386719-37.546875h5.035157c11.78125 0 21.335937 9.550781 21.335937 21.335938zm0 0" fill="#ffe0b2"/><path d="m494.933594 230.398438v42.667968h-59.734375v-93.867187c0-9.425781 7.640625-17.066407 17.066406-17.066407s17.066406 7.640626 17.066406 17.066407v34.132812c0 4.714844 3.820313 8.535157 8.535157 8.535157h8.53125c4.714843 0 8.535156 3.820312 8.535156 8.53125zm0 0" fill="#bfa885"/><path d="m469.332031 230.398438v42.667968h-34.132812v-93.867187c.007812-4.121094 1.523437-8.097657 4.265625-11.179688 2.742187 3.082031 4.261718 7.058594 4.269531 11.179688v34.132812c0 4.714844 3.820313 8.535157 8.53125 8.535157h8.535156c4.710938 0 8.53125 3.820312 8.53125 8.53125zm0 0" fill="#ffe0b2"/><path d="m469.332031 273.066406h-34.132812l-23.636719 29.011719-11.347656 13.910156c-2.679688-6.65625-6.117188-12.984375-10.242188-18.859375-8.105468-11.742187-18.75-21.511718-31.144531-28.585937l-.429687.855469v148.90625h39.167968c12.652344-.023438 24.265625-7.007813 30.210938-18.175782l67.15625-127.0625zm0 0" fill="#3f51b5"/><path d="m494.933594 273.066406-67.15625 127.0625c-5.945313 11.167969-17.558594 18.152344-30.210938 18.175782h-25.597656c12.652344-.023438 24.261719-7.007813 30.207031-18.175782l67.15625-127.0625zm0 0" fill="#283593"/><path d="m145.066406 204.800781c0 11.945313-10.667968 22.355469-26.878906 28.5-10.523438 3.84375-21.652344 5.75-32.855469 5.632813-12.214843.109375-24.335937-2.179688-35.667969-6.742188-14.59375-6.230468-24.0625-16.210937-24.0625-27.390625zm0 0" fill="#ffe0b2"/><path d="m153.601562 268.289062v141.3125h-42.667968c-15.96875.003907-29.785156-11.113281-33.195313-26.710937l-28.074219-150.699219c11.332032 4.5625 23.453126 6.851563 35.667969 6.742188 11.203125.117187 22.332031-1.789063 32.855469-5.632813l5.035156 38.230469 2.730469 20.222656c1.59375-2.03125 3.300781-3.96875 5.117187-5.800781 6.566407-7.003906 14.164063-12.960937 22.53125-17.664063zm0 0" fill="#3f51b5"/><path d="m189.867188 162.132812h-172.800782c-4.710937 0-8.53125-3.820312-8.53125-8.53125v-25.601562c0-4.710938 3.820313-8.535156 8.53125-8.535156h132.351563c3.515625 4.664062 8.78125 7.691406 14.578125 8.382812s11.628906-1.007812 16.140625-4.710937l7.597656 30.464843zm0 0" fill="#f44335"/><path d="m212.136719 204.800781h-195.070313c-4.710937 0-8.53125-3.820312-8.53125-8.535156v-25.597656c0-4.714844 3.820313-8.535157 8.53125-8.535157h172.800782l2.304687 9.300782c3.433594 12.667968 10.425781 24.085937 20.15625 32.898437zm0 0" fill="#c52828"/><path d="m307.199219 264.535156h-102.398438c-2.535156-.003906-4.9375-1.128906-6.558593-3.078125-1.621094-1.949219-2.292969-4.519531-1.832032-7.011719l8.449219-45.667968c-10.117187-9.578125-17.367187-21.785156-20.933594-35.253906l-21.554687-86.117188c-.636719-2.550781-.0625-5.257812 1.554687-7.328125 1.621094-2.074219 4.109375-3.285156 6.742188-3.277344h170.664062c2.628907 0 5.113281 1.210938 6.726563 3.28125 1.617187 2.074219 2.191406 4.773438 1.550781 7.324219l-21.554687 86.117188c-3.523438 13.621093-10.652344 26.039062-20.640626 35.945312h-.1875l8.34375 44.933594c.476563 2.496094-.1875 5.074218-1.804687 7.035156-1.617187 1.957031-4.023437 3.09375-6.566406 3.097656zm-92.160157-17.070312h81.921876l-6.484376-34.925782v-.152343c-.871093-5.519531.988282-11.121094 4.980469-15.027344 7.714844-7.746094 13.238281-17.398437 16.007813-27.972656l18.921875-75.519531h-148.804688l18.875 75.519531c2.867188 10.386719 8.464844 19.816406 16.210938 27.304687 4.003906 3.914063 5.855469 9.519532 4.976562 15.046875zm0 0"/><path d="m341.402344 512h-170.839844c-14.078125-.027344-25.480469-11.441406-25.496094-25.523438v-145.144531c0-4.710937 3.820313-8.53125 8.535156-8.53125h204.796876c4.714843 0 8.535156 3.820313 8.535156 8.53125v145.144531c-.015625 14.09375-11.4375 25.515626-25.53125 25.523438zm-179.269532-162.132812v136.609374c0 4.667969 3.78125 8.453126 8.449219 8.457032h170.835938c4.667969-.003906 8.449219-3.789063 8.449219-8.457032v-136.609374zm0 0"/><path d="m187.734375 349.867188h-34.132813c-4.714843 0-8.535156-3.820313-8.535156-8.535157v-73.027343c0-4.710938 3.820313-8.53125 8.535156-8.53125 4.710938 0 8.53125 3.820312 8.53125 8.53125v64.496093h17.066407v-75.195312c0-4.714844 3.820312-8.535157 8.535156-8.535157 4.710937 0 8.53125 3.820313 8.53125 8.535157v83.726562c0 4.714844-3.820313 8.535157-8.53125 8.535157zm0 0"/><path d="m358.398438 349.867188h-34.132813c-4.710937 0-8.53125-3.820313-8.53125-8.535157v-84.324219c0-4.714843 3.820313-8.535156 8.53125-8.535156 4.714844 0 8.535156 3.820313 8.535156 8.535156v75.792969h17.066407v-63.402343c0-4.714844 3.820312-8.535157 8.53125-8.535157 4.714843 0 8.535156 3.820313 8.535156 8.535157v71.933593c0 4.714844-3.820313 8.535157-8.535156 8.535157zm0 0"/><path d="m405.863281 344.523438c-4.171875 0-7.730469-3.019532-8.414062-7.132813-6.898438-42.09375-43.324219-72.960937-85.984375-72.855469h-110.929688c-42.667968-.121094-79.109375 30.75-86.007812 72.855469-.503906 3.007813-2.570313 5.519531-5.425782 6.589844-2.855468 1.066406-6.066406.535156-8.417968-1.40625-2.355469-1.9375-3.496094-4.984375-2.992188-7.992188 8.253906-50.34375 51.828125-87.25 102.84375-87.117187h110.929688c51.007812-.121094 94.566406 36.785156 102.820312 87.117187.371094 2.234375-.15625 4.523438-1.472656 6.367188-1.316406 1.839843-3.308594 3.085937-5.542969 3.457031-.464843.078125-.933593.117188-1.40625.117188zm0 0"/><path d="m341.332031 93.867188h-170.664062c-4.714844 0-8.535157-3.820313-8.535157-8.535157v-51.199219c0-18.851562 15.28125-34.132812 34.132813-34.132812h119.46875c18.851563 0 34.132813 15.28125 34.132813 34.132812v51.199219c0 4.714844-3.820313 8.535157-8.535157 8.535157zm-162.132812-17.066407h153.601562v-42.667969c0-9.425781-7.640625-17.066406-17.066406-17.066406h-119.46875c-9.425781 0-17.066406 7.640625-17.066406 17.066406zm0 0"/><path d="m166.519531 136.535156c-16.496093 0-29.867187-13.375-29.867187-29.867187 0-16.496094 13.371094-29.867188 29.867187-29.867188 4.710938 0 8.535157 3.820313 8.535157 8.53125 0 4.714844-3.824219 8.535157-8.535157 8.535157-5.640625 0-10.617187 3.695312-12.25 9.097656-1.632812 5.398437.464844 11.230468 5.160157 14.359375 4.699218 3.125 10.886718 2.804687 15.238281-.785157 3.636719-3 9.015625-2.484374 12.015625 1.152344 3 3.636719 2.484375 9.015625-1.152344 12.015625-5.355469 4.410157-12.074219 6.820313-19.011719 6.828125zm0 0"/><path d="m346.367188 136.535156c-6.9375-.003906-13.660157-2.417968-19.019532-6.828125-3.632812-3.003906-4.144531-8.382812-1.144531-12.015625 3.003906-3.632812 8.382813-4.144531 12.015625-1.144531 2.289062 1.902344 5.175781 2.933594 8.148438 2.917969 7.070312 0 12.800781-5.730469 12.800781-12.796875 0-7.070313-5.730469-12.800781-12.800781-12.800781-4.710938 0-8.53125-3.820313-8.53125-8.535157 0-4.710937 3.820312-8.53125 8.53125-8.53125 16.496093 0 29.867187 13.371094 29.867187 29.867188 0 16.492187-13.371094 29.867187-29.867187 29.867187zm0 0"/><path d="m460.800781 128c0 4.710938-3.820312 8.535156-8.535156 8.535156-4.710937 0-8.53125-3.824218-8.53125-8.535156s3.820313-8.535156 8.53125-8.535156c4.714844 0 8.535156 3.824218 8.535156 8.535156zm0 0"/><path d="m494.933594 281.601562h-59.734375c-4.710938 0-8.53125-3.820312-8.53125-8.535156v-93.867187c0-14.136719 11.460937-25.597657 25.597656-25.597657 14.140625 0 25.601563 11.460938 25.601563 25.597657v34.132812h8.53125c9.425781 0 17.066406 7.640625 17.066406 17.066407v42.667968c0 4.714844-3.820313 8.535156-8.53125 8.535156zm-51.199219-17.066406h42.664063v-34.136718h-8.53125c-9.425782 0-17.066407-7.640626-17.066407-17.066407v-34.132812c0-4.710938-3.820312-8.53125-8.535156-8.53125-4.710937 0-8.53125 3.820312-8.53125 8.53125zm0 0"/><path d="m397.558594 426.847656h-39.160156c-4.710938 0-8.53125-3.824218-8.53125-8.535156s3.820312-8.535156 8.53125-8.535156h39.179687c9.496094.003906 18.214844-5.25 22.644531-13.652344l60.546875-114.523438h-41.507812l-32.425781 39.78125c-1.855469 2.570313-4.980469 3.902344-8.121094 3.457032-3.136719-.445313-5.769532-2.59375-6.835938-5.578125s-.390625-6.316407 1.753906-8.648438l34.988282-42.921875c1.609375-1.984375 4.023437-3.144531 6.578125-3.15625h59.734375c2.992187 0 5.761718 1.566406 7.304687 4.128906 1.546875 2.558594 1.636719 5.742188.238281 8.386719l-67.183593 127.054688c-7.375 14.003906-21.90625 22.761719-37.734375 22.742187zm0 0"/><path d="m494.933594 204.800781h-25.601563c-4.710937 0-8.53125-3.820312-8.53125-8.535156 0-4.710937 3.820313-8.53125 8.53125-8.53125h25.601563v-85.335937h-85.332032v85.335937h25.597657c4.714843 0 8.535156 3.820313 8.535156 8.53125 0 4.714844-3.820313 8.535156-8.535156 8.535156h-25.597657c-9.425781 0-17.066406-7.640625-17.066406-17.066406v-85.335937c0-9.425782 7.640625-17.066407 17.066406-17.066407h85.332032c9.425781 0 17.066406 7.640625 17.066406 17.066407v85.335937c0 9.425781-7.640625 17.066406-17.066406 17.066406zm0 0"/><path d="m256 175.027344c-29.335938 0-58.675781-4.777344-73.003906-14.328125-2.535156-1.691407-3.976563-4.609375-3.78125-7.652344.199218-3.042969 2.003906-5.746094 4.738281-7.097656 2.734375-1.351563 5.980469-1.140625 8.515625.550781 22.5625 15.042969 104.5 15.042969 127.0625 0 2.535156-1.691406 5.78125-1.902344 8.515625-.550781 2.734375 1.351562 4.539063 4.054687 4.738281 7.097656.195313 3.042969-1.246094 5.960937-3.78125 7.652344-14.328125 9.550781-43.667968 14.328125-73.003906 14.328125zm0 0"/><path d="m85.332031 247.464844c-38.277343 0-68.265625-18.773438-68.265625-42.664063 0-4.714843 3.820313-8.535156 8.535156-8.535156h119.464844c4.714844 0 8.535156 3.820313 8.535156 8.535156 0 23.890625-29.988281 42.664063-68.269531 42.664063zm-47.894531-34.132813c7.03125 9.148438 24.746094 17.066407 47.894531 17.066407 23.152344 0 40.867188-7.917969 47.898438-17.066407zm0 0"/><path d="m153.601562 418.132812h-42.667968c-19.953125-.09375-37.191406-13.96875-41.550782-33.441406l-28.097656-150.945312c-.863281-4.636719 2.195313-9.09375 6.828125-9.957032 4.636719-.859374 9.09375 2.199219 9.957031 6.832032l28.039063 150.683594c2.6875 11.550781 12.964844 19.734374 24.824219 19.761718h42.667968c4.710938 0 8.53125 3.820313 8.53125 8.535156 0 4.710938-3.820312 8.53125-8.53125 8.53125zm0 0"/><path d="m125.953125 300.253906c-4.273437-.003906-7.886719-3.171875-8.449219-7.40625l-7.800781-58.402344c-.621094-4.671874 2.660156-8.96875 7.332031-9.59375 4.671875-.621093 8.964844 2.660157 9.589844 7.332032l7.792969 58.402344c.328125 2.441406-.417969 4.902343-2.039063 6.753906-1.621094 1.855468-3.964844 2.917968-6.425781 2.914062zm0 0"/><path d="m190.824219 170.667969h-182.289063c-4.714844 0-8.535156-3.820313-8.535156-8.535157v-42.667968c0-4.710938 3.820312-8.53125 8.535156-8.53125h141.753906c4.710938 0 8.535157 3.820312 8.535157 8.53125 0 4.714844-3.824219 8.535156-8.535157 8.535156h-133.222656v25.601562h173.757813c4.710937 0 8.53125 3.820313 8.53125 8.53125 0 4.714844-3.820313 8.535157-8.53125 8.535157zm0 0"/><path d="m212.207031 213.332031h-203.671875c-4.714844 0-8.535156-3.820312-8.535156-8.53125v-42.667969c0-4.710937 3.820312-8.53125 8.535156-8.53125h162.207032c4.714843 0 8.535156 3.820313 8.535156 8.53125 0 4.714844-3.820313 8.535157-8.535156 8.535157h-153.675782v25.597656h195.140625c4.710938 0 8.535157 3.820313 8.535157 8.535156 0 4.710938-3.824219 8.53125-8.535157 8.53125zm0 0"/><path d="m93.867188 93.867188c-3.457032.003906-6.570313-2.078126-7.890626-5.269532-1.324218-3.191406-.589843-6.867187 1.855469-9.304687 1.378907-1.378907 1.378907-3.609375 0-4.984375-8.039062-8.054688-8.039062-21.097656 0-29.148438 3.339844-3.332031 8.746094-3.328125 12.078125.007813 3.332032 3.335937 3.328125 8.742187-.011718 12.074219-1.375 1.375-1.375 3.605468 0 4.984374 8.042968 8.050782 8.042968 21.097657 0 29.148438-1.601563 1.597656-3.769532 2.492188-6.03125 2.492188zm0 0"/><path d="m42.667969 93.867188c-3.457031.003906-6.570313-2.078126-7.890625-5.269532-1.324219-3.191406-.589844-6.867187 1.855468-9.304687 1.375-1.378907 1.375-3.609375 0-4.984375-8.042968-8.054688-8.042968-21.097656 0-29.148438 3.335938-3.332031 8.742188-3.328125 12.074219.007813 3.332031 3.335937 3.328125 8.742187-.007812 12.074219-1.375 1.375-1.375 3.605468 0 4.984374 8.042969 8.050782 8.042969 21.097657 0 29.148438-1.601563 1.597656-3.769531 2.492188-6.03125 2.492188zm0 0"/></svg>