<svg height="496pt" viewBox="0 0 496 496.15104" width="496pt" xmlns="http://www.w3.org/2000/svg"><path d="m287.703125 116.15625c-13.5 16.4375-21.652344 36.605469-23.367187 57.804688l-34.4375-.875c-1.984376-20.871094-10.117188-40.683594-23.371094-56.929688zm0 0" fill="#2296f3"/><path d="m305.625 124.414062h-115.613281c-4.5625 0-8.257813-3.695312-8.257813-8.257812s3.695313-8.257812 8.257813-8.257812h115.613281c4.558594 0 8.257812 3.695312 8.257812 8.257812s-3.699218 8.257812-8.257812 8.257812zm0 0" fill="#285680"/><path d="m487.300781 421.703125c-.066406 9.09375-7.421875 16.449219-16.515625 16.519531h-445.933594c-9.113281-.027344-16.492187-7.40625-16.515624-16.519531-.023438-4.378906 1.734374-8.582031 4.871093-11.640625 3.058594-3.140625 7.261719-4.898438 11.644531-4.875h445.933594c9.109375.027344 16.488282 7.40625 16.515625 16.515625zm0 0" fill="#1566c0"/><path d="m462.527344 421.703125c-.066406 9.09375-7.421875 16.449219-16.515625 16.519531h-421.160157c-9.113281-.027344-16.492187-7.40625-16.515624-16.519531-.023438-4.378906 1.734374-8.582031 4.871093-11.640625 3.058594-3.140625 7.261719-4.898438 11.644531-4.875h421.160157c9.109375.027344 16.488281 7.40625 16.515625 16.515625zm0 0" fill="#2296f3"/><path d="m235.429688 165.703125h24.773437c116.300781 0 210.582031 94.28125 210.582031 210.582031v28.902344h-445.933594v-28.902344c0-116.300781 94.277344-210.582031 210.578126-210.582031zm0 0" fill="#00838f"/><path d="m231.300781 165.703125h8.257813c54.753906 0 107.265625 21.753906 145.984375 60.46875 38.71875 38.71875 60.46875 91.230469 60.46875 145.984375v33.03125h-421.160157v-33.03125c0-114.019531 92.429688-206.453125 206.449219-206.453125zm0 0" fill="#00bcd4"/><path d="m156.980469 215.253906s-41.292969 24.773438-57.808594 57.804688h41.292969c1.335937-20.222656 6.964844-39.929688 16.515625-57.804688zm0 0" fill="#f5f5f5"/><path d="m132.203125 306.089844h-49.546875s-16.515625 16.519531-16.515625 66.066406h66.0625c-5.273437-21.707031-5.273437-44.359375 0-66.066406zm0 0" fill="#f5f5f5"/><path d="m115.6875 487.769531c-22.800781 0-41.289062-18.488281-41.289062-41.289062 0-22.804688 18.488281-41.292969 41.289062-41.292969 22.804688 0 41.292969 18.488281 41.292969 41.292969-.027344 22.789062-18.5 41.261719-41.292969 41.289062zm0 0" fill="#3f51b5"/><path d="m115.6875 462.996094c-9.121094 0-16.515625-7.394532-16.515625-16.515625 0-9.125 7.394531-16.519531 16.515625-16.519531s16.515625 7.394531 16.515625 16.519531c0 9.121093-7.394531 16.515625-16.515625 16.515625zm0 0" fill="#cfd8dc"/><path d="m379.945312 405.1875c-4.191406.015625-8.363281.625-12.386718 1.816406-17.207032 5.453125-28.902344 21.421875-28.902344 39.476563 0 18.050781 11.695312 34.023437 28.902344 39.472656 4.023437 1.191406 8.195312 1.804687 12.386718 1.816406 22.804688 0 41.292969-18.488281 41.292969-41.289062 0-22.804688-18.488281-41.292969-41.292969-41.292969zm0 0" fill="#283593"/><path d="m367.558594 407.003906c-17.207032 5.453125-28.902344 21.421875-28.902344 39.476563 0 18.050781 11.695312 34.023437 28.902344 39.472656 17.210937-5.449219 28.90625-21.421875 28.90625-39.472656 0-18.054688-11.695313-34.023438-28.90625-39.476563zm0 0" fill="#3f51b5"/><path d="m239.640625 83.050781c.746094.558594 1.464844 1.15625 2.164063 1.78125-14.960938-13.433593-23.839844-29.15625-45.285157-32.519531-21.445312-3.359375-46.558593 2.890625-63.664062-13.757812-7.210938-8.84375-15.636719-16.625-25.019531-23.121094-9.804688-5.078125-20.753907-7.535156-31.785157-7.136719-9.015625.332031-17.960937 1.753906-26.632812 4.238281-4.550781 1.222656-9.082031 2.648438-13.511719 4.128906-2.476562.824219-8.503906 4.300782-11.046875 3.796876 11.296875 2.230468 22.527344 4.996093 33.601563 8.152343 18.332031 5.21875 33.859374 10.84375 45.070312 27.25 3.539062 5.972657 7.382812 11.761719 11.511719 17.34375 11.027343 13.097657 30.664062 12.609375 46.164062 9.910157 13.78125-2.421876 27.1875-6.980469 41.109375-8.417969 13.046875-1.972657 26.363282 1.003906 37.324219 8.351562zm0 0" fill="#607d8b"/><path d="m8.335938 101.613281c1.195312.304688 6.132812-2.78125 7.296874-3.246093 6.722657-2.648438 13.703126-4.585938 20.828126-5.78125 12.460937-2.476563 25.371093-1.277344 37.160156 3.453124 12.203125 6.214844 24.769531 11.679688 37.632812 16.367188 14.691406 5.011719 30.351563 6.503906 45.726563 4.351562-.828125.140626-6.039063 11.167969-7.308594 12.890626-3.054687 4.1875-6.695313 7.910156-10.8125 11.058593-14.53125 9.746094-33.0625 11.308594-49.019531 4.128907-16.910156-6.976563-27.828125-21.125-43.417969-29.503907-12.101563-6.078125-24.890625-10.683593-38.085937-13.71875zm0 0" fill="#607d8b"/><path d="m379.945312 462.996094c-9.121093 0-16.515624-7.394532-16.515624-16.515625 0-9.125 7.394531-16.519531 16.515624-16.519531 9.125 0 16.519532 7.394531 16.519532 16.519531 0 9.121093-7.394532 16.515625-16.519532 16.515625zm0 0" fill="#cfd8dc"/><path d="m470.785156 446.480469h-50.375c-4.558594 0-8.257812-3.699219-8.257812-8.257813 0-4.5625 3.699218-8.261718 8.257812-8.261718h50.375c2.15625.023437 4.226563-.835938 5.730469-2.375 1.617187-1.53125 2.53125-3.65625 2.527344-5.882813 0-4.558594-3.695313-8.257813-8.257813-8.257813h-445.933594c-2.15625-.019531-4.226562.839844-5.734374 2.378907-1.613282 1.527343-2.527344 3.65625-2.523438 5.878906 0 4.5625 3.695312 8.257813 8.257812 8.257813h50.371094c4.5625 0 8.257813 3.699218 8.257813 8.261718 0 4.558594-3.695313 8.257813-8.257813 8.257813h-50.371094c-13.683593 0-24.7773432-11.09375-24.7773432-24.777344-.0390626-6.613281 2.6250002-12.953125 7.3750002-17.554687 4.585937-4.664063 10.863281-7.265626 17.402343-7.21875h445.933594c13.683594 0 24.773438 11.09375 24.773438 24.773437-.074219 13.652344-11.121094 24.699219-24.773438 24.777344zm0 0"/><path d="m339.480469 446.480469h-183.328125c-4.558594 0-8.257813-3.699219-8.257813-8.257813 0-4.5625 3.699219-8.261718 8.257813-8.261718h183.328125c4.5625 0 8.261719 3.699218 8.261719 8.261718 0 4.558594-3.699219 8.257813-8.261719 8.257813zm0 0"/><path d="m470.785156 413.445312h-445.933594c-4.5625 0-8.257812-3.695312-8.257812-8.257812v-28.902344c.136719-120.804687 98.03125-218.703125 218.835938-218.839844h24.773437c120.804687.136719 218.703125 98.035157 218.839844 218.839844v28.902344c0 4.5625-3.695313 8.257812-8.257813 8.257812zm-437.675781-16.515624h429.417969v-20.644532c-.128906-111.6875-90.636719-202.195312-202.324219-202.324218h-24.773437c-111.6875.128906-202.195313 90.636718-202.320313 202.324218zm0 0"/><path d="m231.300781 173.136719c-4.507812 0-8.183593-3.617188-8.257812-8.125-1.589844-16.355469-9-31.59375-20.882813-42.941407-2.109375-2.066406-2.957031-5.101562-2.222656-7.960937.730469-2.859375 2.9375-5.109375 5.777344-5.902344 2.84375-.796875 5.894531-.011719 8.003906 2.054688 15.050781 14.324219 24.257812 33.71875 25.839844 54.433593.039062 2.191407-.796875 4.308594-2.316406 5.882813-1.523438 1.574219-3.609376 2.480469-5.800782 2.515625zm0 0"/><path d="m264.335938 173.960938c-4.5625 0-8.261719-3.695313-8.261719-8.257813 0-28 19.820312-49.546875 25.859375-55.453125 3.257812-3.191406 8.492187-3.136719 11.683594.125 3.191406 3.261719 3.136718 8.492188-.125 11.6875-3.507813 3.410156-20.898438 21.535156-20.898438 43.640625 0 4.5625-3.699219 8.257813-8.257812 8.257813zm0 0"/><path d="m305.625 124.414062h-115.613281c-4.5625 0-8.257813-3.695312-8.257813-8.257812s3.695313-8.257812 8.257813-8.257812h115.613281c4.558594 0 8.257812 3.695312 8.257812 8.257812s-3.699218 8.257812-8.257812 8.257812zm0 0"/><path d="m140.464844 281.316406h-41.292969c-2.863281.003906-5.519531-1.480468-7.027344-3.914062-1.503906-2.433594-1.640625-5.472656-.363281-8.035156 17.398438-34.78125 59.179688-60.132813 60.945312-61.191407 3.140626-1.875 7.140626-1.460937 9.832032 1.019531 2.6875 2.480469 3.425781 6.433594 1.8125 9.714844-8.917969 16.769532-14.246094 35.210938-15.648438 54.148438 0 4.5625-3.699218 8.257812-8.257812 8.257812zm-26.566406-16.515625h18.925781c1.121093-8.746093 3.019531-17.371093 5.671875-25.78125-9.1875 7.59375-17.445313 16.246094-24.597656 25.78125zm0 0"/><path d="m132.203125 380.414062h-66.0625c-4.5625 0-8.257813-3.695312-8.257813-8.257812 0-51.480469 17.003907-69.96875 18.933594-71.902344 1.550782-1.550781 3.648438-2.417968 5.839844-2.421875h49.546875c2.480469 0 4.832031 1.113281 6.398437 3.035157 1.570313 1.921874 2.191407 4.445312 1.695313 6.875-4.875 20.328124-4.960937 41.507812-.246094 61.871093.8125 2.511719.375 5.261719-1.175781 7.394531-1.550781 2.136719-4.03125 3.402344-6.671875 3.40625zm-57.632813-16.515624h47.378907c-2.386719-16.441407-2.242188-33.152344.429687-49.546876h-35.644531c-3.464844 5.382813-10.957031 20.246094-12.164063 49.546876zm0 0"/><path d="m115.6875 496.027344c-27.363281 0-49.546875-22.183594-49.546875-49.546875 0-27.367188 22.183594-49.550781 49.546875-49.550781 27.367188 0 49.550781 22.183593 49.550781 49.550781-.027343 27.351562-22.195312 49.519531-49.550781 49.546875zm0-82.582032c-18.242188 0-33.03125 14.789063-33.03125 33.035157 0 18.242187 14.789062 33.03125 33.03125 33.03125 18.246094 0 33.035156-14.789063 33.035156-33.03125 0-18.246094-14.789062-33.035157-33.035156-33.035157zm0 0"/><path d="m115.6875 496.027344h-66.0625c-4.5625 0-8.257812-3.699219-8.257812-8.257813 0-4.5625 3.695312-8.257812 8.257812-8.257812h66.0625c4.5625 0 8.257812 3.695312 8.257812 8.257812 0 4.558594-3.695312 8.257813-8.257812 8.257813zm0 0"/><path d="m16.59375 496.152344h-8.257812c-4.5625 0-8.2617192-3.699219-8.2617192-8.257813 0-4.5625 3.6992192-8.257812 8.2617192-8.257812h8.257812c4.558594 0 8.257812 3.695312 8.257812 8.257812 0 4.558594-3.699218 8.257813-8.257812 8.257813zm0 0"/><path d="m379.945312 496.027344c-27.363281 0-49.546874-22.183594-49.546874-49.546875 0-27.367188 22.183593-49.550781 49.546874-49.550781 27.367188 0 49.550782 22.183593 49.550782 49.550781-.027344 27.351562-22.195313 49.519531-49.550782 49.546875zm0-82.582032c-18.242187 0-33.03125 14.789063-33.03125 33.035157 0 18.242187 14.789063 33.03125 33.03125 33.03125 18.246094 0 33.035157-14.789063 33.035157-33.03125 0-18.246094-14.789063-33.035157-33.035157-33.035157zm0 0"/><path d="m379.945312 496.027344h-66.0625c-4.5625 0-8.257812-3.699219-8.257812-8.257813 0-4.5625 3.695312-8.257812 8.257812-8.257812h66.0625c4.5625 0 8.257813 3.695312 8.257813 8.257812 0 4.558594-3.695313 8.257813-8.257813 8.257813zm0 0"/><path d="m280.851562 496.152344h-8.257812c-4.5625 0-8.257812-3.699219-8.257812-8.257813 0-4.5625 3.695312-8.257812 8.257812-8.257812h8.257812c4.558594 0 8.257813 3.695312 8.257813 8.257812 0 4.558594-3.699219 8.257813-8.257813 8.257813zm0 0"/><path d="m241.796875 93.101562c-2.03125-.003906-3.996094-.757812-5.507813-2.117187l-.179687-.15625c-.472656-.421875-.96875-.824219-1.472656-1.207031-9.347657-5.929688-20.519531-8.292969-31.46875-6.652344-7.859375.996094-15.640625 2.519531-23.296875 4.558594-5.582032 1.351562-11.355469 2.75-17.234375 3.773437-24.988281 4.390625-43.125.105469-53.910157-12.703125-3.027343-3.761718-5.757812-7.75-8.175781-11.933594-1.246093-2.046874-2.476562-4.128906-3.847656-6.085937-9.753906-14.316406-23.519531-19.15625-40.464844-23.945313-11.386719-3.28125-22.46875-5.972656-32.980469-8.011718-4.230468-.839844-7.105468-4.792969-6.59375-9.078125.511719-4.28125 4.230469-7.449219 8.542969-7.273438 1.460938-.523437 2.894531-1.121093 4.292969-1.792969 1.503906-.683593 2.839844-1.269531 3.773438-1.585937 4.625-1.582031 9.273437-3.0625 13.988281-4.332031 9.320312-2.652344 18.925781-4.167969 28.605469-4.5195315 12.46875-.4101565 24.832031 2.3945315 35.898437 8.1523435 7.6875 4.597656 14.519531 10.492188 20.191406 17.421875 2.15625 2.371094 4.328125 4.757813 6.605469 7.019531 9.722656 9.464844 23.652344 9.777344 38.394531 10.117188 6.957031.007812 13.90625.476562 20.800781 1.402344 18.769532 2.949218 29.292969 13.933594 39.472657 24.5625 3.148437 3.300781 6.390625 6.679687 9.910156 9.835937l.191406.171875c2.527344 2.292969 3.386719 5.90625 2.15625 9.09375-1.226562 3.183594-4.292969 5.285156-7.707031 5.285156zm-185.796875-73.722656 4.714844 1.3125c18.828125 5.371094 36.796875 11.734375 49.632812 30.554688 1.5 2.214844 2.90625 4.503906 4.300782 6.789062 1.984374 3.46875 4.226562 6.78125 6.707031 9.910156 6.710937 7.976563 19.636719 10.363282 38.414062 7.078126 5.46875-.984376 10.828125-2.253907 16.203125-3.558594 8.371094-2.222656 16.882813-3.878906 25.476563-4.957032 2.785156-.28125 5.582031-.421874 8.382812-.421874-4.394531-2.917969-9.375-4.832032-14.59375-5.613282-6.171875-.808594-12.394531-1.210937-18.621093-1.207031-16.515626-.378906-35.164063-.824219-49.546876-14.796875-2.570312-2.476562-4.957031-5.113281-7.34375-7.730469-4.472656-5.527343-9.832031-10.273437-15.863281-14.039062-8.527343-4.433594-18.0625-6.554688-27.664062-6.152344-6.8125.230469-13.585938 1.179687-20.199219 2.832031zm0 0"/><path d="m111.714844 157.488281c-8.585938-.035156-17.082032-1.75-25.011719-5.046875-9.679687-4.40625-18.648437-10.234375-26.609375-17.292968-5.457031-4.710938-11.34375-8.898438-17.578125-12.519532-11.523437-5.753906-23.6875-10.125-36.238281-13.011718-3.832032-.992188-6.421875-4.5625-6.171875-8.511719.246093-3.953125 3.261719-7.171875 7.1875-7.675781.828125-.363282 1.777343-.925782 2.585937-1.355469.886719-.503907 1.804688-.960938 2.742188-1.371094 7.257812-2.882813 14.800781-4.992187 22.503906-6.289063 14.085938-2.746093 28.667969-1.332031 41.964844 4.070313 3.4375 1.566406 6.820312 3.1875 10.207031 4.804687 8.558594 4.359376 17.414063 8.105469 26.5 11.207032 13.425781 4.660156 27.761719 6.074218 41.835937 4.128906 3.507813-.585938 6.996094 1.136719 8.660157 4.28125 1.664062 3.140625 1.128906 6.996094-1.328125 9.566406-.757813 1.230469-1.898438 3.492188-2.996094 5.582032-1.058594 2.246093-2.269531 4.414062-3.625 6.492187-3.53125 4.835937-7.742188 9.136719-12.503906 12.765625-9.320313 6.789062-20.59375 10.359375-32.125 10.175781zm-76.648438-56.296875c5.226563 1.964844 10.320313 4.261719 15.25 6.878906 7.152344 4.089844 13.898438 8.851563 20.144532 14.222657 6.742187 6.023437 14.328124 11.027343 22.519531 14.863281 13.261719 6.066406 28.703125 4.914062 40.917969-3.054688 3.046874-2.324218 5.78125-5.035156 8.132812-8.058593-11.300781-.324219-22.5-2.273438-33.246094-5.78125-9.824218-3.339844-19.398437-7.367188-28.65625-12.058594-3.300781-1.578125-6.605468-3.144531-9.910156-4.664063-10.304688-4.054687-21.566406-5.035156-32.421875-2.824218-.898437.132812-1.804687.296875-2.730469.476562zm-24.773437-7.605468h.136719zm0 0"/></svg>